<?xml version="1.0" encoding="utf-8"?>
<svg id="master-artboard" viewBox="0 0 940.4595336914062 65.42423248291016" version="1.1" xmlns="http://www.w3.org/2000/svg" x="0px" y="0px" style="enable-background:new 0 0 1400 980;" width="940.4595336914062px" height="65.42423248291016px" xmlns:xlink="http://www.w3.org/1999/xlink"><rect id="ee-background" x="0" y="0" width="940.4595336914062" height="65.42423248291016" style="fill: white; fill-opacity: 0; pointer-events: none;"/><g transform="matrix(1.2760417461395264, 0, 0, 1.2760417461395264, -186.10715103149414, -459.5405290139438)"><metadata id="metadata138089">
    
  </metadata><linearGradient spreadMethod="pad" y2="30%" x2="-10%" y1="120%" x1="30%" id="3d_gradient2-logo-079642cc-693c-4362-a51e-1f11d1efdab3">
    <stop id="stop138064" stop-opacity="1" stop-color="#ffffff" offset="0%"/>
    <stop id="stop138066" stop-opacity="1" stop-color="#000000" offset="100%"/>
  </linearGradient><linearGradient gradientTransform="rotate(-30)" spreadMethod="pad" y2="30%" x2="-10%" y1="120%" x1="30%" id="3d_gradient3-logo-079642cc-693c-4362-a51e-1f11d1efdab3">
    <stop id="stop138069" stop-opacity="1" stop-color="#ffffff" offset="0%"/>
    <stop id="stop138071" stop-opacity="1" stop-color="#cccccc" offset="50%"/>
    <stop id="stop138073" stop-opacity="1" stop-color="#000000" offset="100%"/>
  </linearGradient><g id="logo-group">
    <image id="container" x="272" y="144" width="480" height="480" style="display: none;" transform="translate(0 0)" xlink:href=""/>
    <g id="logo-center" transform="translate(-1.1368683772161603e-13 0)">
      <image id="icon_container" x="0" y="0" style="display: none;" xlink:href=""/>
      <g id="slogan" style="font-style:normal;font-weight:400;font-size:32px;line-height:1;font-family:Questrial;font-variant-ligatures:none;text-align:center;text-anchor:middle" transform="translate(0 0)"/>
      <g id="title" style="font-style:normal;font-weight:normal;font-size:72px;line-height:1;font-family:'Brandmark Sans 29';font-variant-ligatures:normal;text-align:center;text-anchor:middle" transform="translate(0 0)">
        <path id="path138092" style="font-style:normal;font-weight:normal;font-size:72px;line-height:1;font-family:'Brandmark Sans 29';font-variant-ligatures:normal;text-align:center;text-anchor:middle" d="m 135.43325,-50.616 h -42.552 V 0 h 10.296 v -12.744 h 32.256 c 10.44,0 18.936,-8.496 18.936,-18.936 0,-10.44 -8.496,-18.936 -18.936,-18.936 z m 0,27.72 h -32.256 v -17.568 h 32.256 c 4.824,0 8.784,3.96 8.784,8.784 0,4.896 -3.96,8.784 -8.784,8.784 z" stroke-width="0" stroke-linejoin="miter" stroke-miterlimit="2" fill="#735e79" stroke="#735e79" transform="translate(0 301.52799999999996) translate(150.07958000000002 64.17248000000001) scale(0.72) translate(-92.88125 50.616)"/>
        <path id="path138094" style="font-style:normal;font-weight:normal;font-size:72px;line-height:1;font-family:'Brandmark Sans 29';font-variant-ligatures:normal;text-align:center;text-anchor:middle" d="m 211.74762,0 h 11.88001 l -8.71201,-16.344 c 4.752,-3.456 7.848,-9 7.848,-15.336 0,-10.44 -8.496,-18.936 -18.936,-18.936 h -44.712 V 0 h 10.29601 v -12.744 h 34.41599 c 0.36,0 0.79201,-0.072 1.152,-0.072 z m -42.33599,-22.896 v -17.568 h 34.41599 c 4.896,0 8.784,3.96 8.784,8.784 0,4.896 -3.888,8.784 -8.784,8.784 z" stroke-width="0" stroke-linejoin="miter" stroke-miterlimit="2" fill="#7d657c" stroke="#7d657c" transform="translate(0 301.52799999999996) translate(208.56832640000005 64.17248000000001) scale(0.72) translate(-159.11562 50.616)"/>
        <path id="path138096" style="font-style:normal;font-weight:normal;font-size:72px;line-height:1;font-family:'Brandmark Sans 29';font-variant-ligatures:normal;text-align:center;text-anchor:middle" d="m 263.93637,-50.616 h -12.24 c -13.968,0 -25.272,11.376 -25.272,25.344 0,13.968 11.304,25.272 25.272,25.272 h 12.24 c 13.96801,0 25.272,-11.304 25.272,-25.272 0,-13.968 -11.30399,-25.344 -25.272,-25.344 z m 0,40.464 h -12.24 c -8.35199,0 -15.11999,-6.768 -15.11999,-15.12 0,-8.424 6.768,-15.192 15.11999,-15.192 h 12.24 c 8.352,0 15.12,6.768 15.12,15.192 0,8.352 -6.768,15.12 -15.12,15.12 z" stroke-width="0" stroke-linejoin="miter" stroke-miterlimit="2" fill="#876d7f" stroke="#876d7f" transform="translate(0 301.52799999999996) translate(267.8306264 64.17248000000001) scale(0.72) translate(-226.42437 50.616)"/>
        <path id="path138098" style="font-style:normal;font-weight:normal;font-size:72px;line-height:1;font-family:'Brandmark Sans 29';font-variant-ligatures:normal;text-align:center;text-anchor:middle" d="m 354.95225,-50.616 h -10.152 v 25.344 c 0,8.352 -6.768,15.12 -15.192,15.12 h -14.328 v 0.072 h -5.184 c -4.68,0 -8.424,-3.816 -8.424,-8.424 v -5.76 h -10.152 v 5.76 c 0,10.224 8.352,18.504 18.576,18.504 h 19.512 c 13.968,0 25.344,-11.304 25.344,-25.272 z" stroke-width="0" stroke-linejoin="miter" stroke-miterlimit="2" fill="#917482" stroke="#917482" transform="translate(0 301.52799999999996) translate(325.49966 64.17248000000001) scale(0.72) translate(-291.52025 50.616)"/>
        <path id="path138100" style="font-style:normal;font-weight:normal;font-size:72px;line-height:1;font-family:'Brandmark Sans 29';font-variant-ligatures:normal;text-align:center;text-anchor:middle" d="m 371.34913,-40.464 h 50.976 v -10.152 h -61.272 V 0 h 61.272 v -10.152 h -50.976 v -10.584 h 29.08799 v -10.152 h -29.08799 z" stroke-width="0" stroke-linejoin="miter" stroke-miterlimit="2" fill="#9b7c85" stroke="#9b7c85" transform="translate(0 301.52799999999996) translate(386.36333360000003 64.17248000000001) scale(0.72) translate(-361.05313 50.616)"/>
        <path id="path138102" style="font-style:normal;font-weight:normal;font-size:72px;line-height:1;font-family:'Brandmark Sans 29';font-variant-ligatures:normal;text-align:center;text-anchor:middle" d="M 527.43612,-40.248 V -50.4 h -103.464 v 10.152 h 46.584 V 0.216 h 10.296 v -40.464 z" stroke-width="0" stroke-linejoin="miter" stroke-miterlimit="2" fill="#a58388" stroke="#a58388" transform="translate(0 301.52799999999996) translate(442.46500640000005 64.328) scale(0.72) translate(-423.97212 50.4)"/>
        <path id="path138104" style="font-style:normal;font-weight:normal;font-size:72px;line-height:1;font-family:'Brandmark Sans 29';font-variant-ligatures:normal;text-align:center;text-anchor:middle" d="m 565.29575,-50.616 h -12.24 c -13.968,0 -25.272,11.376 -25.272,25.344 0,13.968 11.304,25.272 25.272,25.272 h 12.24 c 13.968,0 25.272,-11.304 25.272,-25.272 0,-13.968 -11.304,-25.344 -25.272,-25.344 z m 0,40.464 h -12.24 c -8.352,0 -15.12,-6.768 -15.12,-15.12 0,-8.424 6.768,-15.192 15.12,-15.192 h 12.24 c 8.352,0 15.12,6.768 15.12,15.192 0,8.352 -6.768,15.12 -15.12,15.12 z" stroke-width="0" stroke-linejoin="miter" stroke-miterlimit="2" fill="#af8b8a" stroke="#af8b8a" transform="translate(0 301.52799999999996) translate(528.0093800000001 64.17248000000001) scale(0.72) translate(-527.78375 50.616)"/>
        <path id="path138106" style="font-style:normal;font-weight:normal;font-size:72px;line-height:1;font-family:'Brandmark Sans 29';font-variant-ligatures:normal;text-align:center;text-anchor:middle" d="m 658.502,-40.464 v -10.152 h -67.68 v 10.152 h 29.232 V 0 h 10.296 v -40.464 z" stroke-width="0" stroke-linejoin="miter" stroke-miterlimit="2" fill="#b9928d" stroke="#b9928d" transform="translate(0 301.52799999999996) translate(584.1969200000001 64.17248000000001) scale(0.72) translate(-590.822 50.616)"/>
        <path id="path138108" style="font-style:normal;font-weight:normal;font-size:72px;line-height:1;font-family:'Brandmark Sans 29';font-variant-ligatures:normal;text-align:center;text-anchor:middle" d="m 672.56787,-40.464 h 50.976 V -50.616 H 662.27188 V 0 h 61.27199 v -10.152 h -50.976 v -10.584 h 29.08801 v -10.152 h -29.08801 z" stroke-width="0" stroke-linejoin="miter" stroke-miterlimit="2" fill="#c39a90" stroke="#c39a90" transform="translate(0 301.52799999999996) translate(646.4408336000001 64.17248000000001) scale(0.72) translate(-662.27188 50.616)"/>
        <path id="path138110" style="font-style:normal;font-weight:normal;font-size:72px;line-height:1;font-family:'Brandmark Sans 29';font-variant-ligatures:normal;text-align:center;text-anchor:middle" d="M 798.27088,-35.712 V -37.8 c 0,-7.056 -5.76001,-12.816 -12.816,-12.816 h -43.20001 c -8.352,0 -15.192,6.84 -15.192,15.192 0,8.352 6.84,15.192 15.192,15.192 h 40.82401 c 2.736,0 5.03999,2.232 5.03999,5.04 0,2.808 -2.30399,5.04 -5.03999,5.04 h -43.27201 c -1.43999,0 -2.592,-1.152 -2.592,-2.592 h -10.152 c 0,7.056 5.688,12.744 12.744,12.744 h 43.27201 c 8.352,0 15.192,-6.84 15.192,-15.192 0,-8.352 -6.84,-15.192 -15.192,-15.192 h -40.82401 c -2.808,0 -5.04,-2.232 -5.04,-5.04 0,-2.736 2.232,-5.04 5.04,-5.04 h 43.20001 c 1.51199,0 2.66399,1.152 2.66399,2.592 v 2.16 z" stroke-width="0" stroke-linejoin="miter" stroke-miterlimit="2" fill="#cda193" stroke="#cda193" transform="translate(0 301.52799999999996) translate(703.8903464000001 64.17248000000001) scale(0.72) translate(-727.06287 50.616)"/>
        <path id="path138112" style="font-style:normal;font-weight:normal;font-size:72px;line-height:1;font-family:'Brandmark Sans 29';font-variant-ligatures:normal;text-align:center;text-anchor:middle" d="m 868.17387,-40.464 v -10.152 h -67.68 v 10.152 h 29.232 V 0 h 10.29601 v -40.464 z" stroke-width="0" stroke-linejoin="miter" stroke-miterlimit="2" fill="#d7a996" stroke="#d7a996" transform="translate(0 301.52799999999996) translate(767.5606664000002 64.17248000000001) scale(0.72) translate(-800.49387 50.616)"/>
        <path id="path138114" style="font-style:normal;font-weight:normal;font-size:72px;line-height:1;font-family:'Brandmark Sans 29';font-variant-ligatures:normal;text-align:center;text-anchor:middle" d="m 882.23975,-40.464 h 50.976 v -10.152 h -61.272 V 0 h 61.272 v -10.152 h -50.976 v -10.584 h 29.088 v -10.152 h -29.088 z" stroke-width="0" stroke-linejoin="miter" stroke-miterlimit="2" fill="#e1b099" stroke="#e1b099" transform="translate(0 301.52799999999996) translate(829.8045800000001 64.17248000000001) scale(0.72) translate(-871.94375 50.616)"/>
      </g>
      <image id="icon" x="0" y="0" style="display: none;" xlink:href=""/>
    </g>
  </g></g></svg>